<svg  xmlns:dc="http://purl.org/dc/elements/1.1/" xmlns:cc="http://creativecommons.org/ns#" xmlns:rdf="http://www.w3.org/1999/02/22-rdf-syntax-ns#" xmlns:svg="http://www.w3.org/2000/svg" xmlns="http://www.w3.org/2000/svg" xmlns:sodipodi="http://sodipodi.sourceforge.net/DTD/sodipodi-0.dtd" xmlns:inkscape="http://www.inkscape.org/namespaces/inkscape" version="1.1" x="0px" y="0px" viewBox="0 0 100 125"><g transform="translate(0,-952.36218)"><path style="text-indent:0;text-transform:none;direction:ltr;block-progression:tb;baseline-shift:baseline;color:#000000;enable-background:accumulate;" d="m 11,968.36217 c -3.3067,0 -6,2.6933 -6,6 l 0,46.00003 c 0,3.3067 2.6933,6 6,6 l 54.875,0 c 2.06149,5.824 7.60272,10 14.125,10 8.27243,0 15,-6.7276 15,-15 0,-6.5223 -4.176,-12.0635 -10,-14.125 l 0,-32.87503 c 0,-3.3067 -2.6933,-6 -6,-6 l -68,0 z m 0,2 68,0 c 2.23329,0 4,1.7667 4,4 l 0,32.31253 c -0.96645,-0.1962 -1.97643,-0.3125 -3,-0.3125 -0.22164,0 -0.43692,0.022 -0.65625,0.031 l -12.375,-9.81243 c -0.35137,-0.2815 -0.89863,-0.2815 -1.25,0 L 51.09375,1008.9558 32.75,988.67447 c -0.56532,-0.4772 -1.0204,-0.3847 -1.40625,-0.062 L 7,1010.1434 7,974.36217 c 0,-2.2333 1.76671,-4 4,-4 z m 42,10 c -3.30187,0 -6,2.6981 -6,6 0,3.3019 2.69813,6 6,6 3.30187,0 6,-2.6981 6,-6 0,-3.3019 -2.69813,-6 -6,-6 z m 0,2 c 2.22099,0 4,1.779 4,4 0,2.221 -1.77901,4 -4,4 -2.22099,0 -4,-1.779 -4,-4 0,-2.221 1.77901,-4 4,-4 z m -21.0625,8.4062 18.3125,20.25003 c 0.34465,0.3913 1.01271,0.4353 1.40625,0.094 L 66.375,998.64357 76.59375,1006.7686 C 69.95351,1008.3118 65,1014.2583 65,1021.3622 c 0,1.0236 0.11632,2.0335 0.3125,3 l -54.3125,0 c -2.23329,0 -4,-1.7667 -4,-4 l 0,-7.5625 24.9375,-22.03133 z M 80,1008.3622 c 7.19155,0 13,5.8084 13,13 0,7.1916 -5.80845,13 -13,13 -7.19155,0 -13,-5.8084 -13,-13 0,-7.1916 5.80845,-13 13,-13 z m 0,5 c -0.5523,0 -1,0.4477 -1,1 l 0,6 -6,0 c -0.55228,0 -1,0.4477 -1,1 0,0.5523 0.44772,1 1,1 l 6,0 0,6 c 0,0.5523 0.4477,1 1,1 0.5523,0 1,-0.4477 1,-1 l 0,-6 6,0 c 0.55228,0 1,-0.4477 1,-1 0,-0.5523 -0.44772,-1 -1,-1 l -6,0 0,-6 c 0,-0.5523 -0.4477,-1 -1,-1 z" fill="#000000" fill-opacity="1" stroke="none" marker="none" visibility="visible" display="inline" overflow="visible"/></g><text x="0" y="115" fill="#000000" font-size="5px" font-weight="bold" font-family="'Helvetica Neue', Helvetica, Arial-Unicode, Arial, Sans-serif">Created by iconsphere</text><text x="0" y="120" fill="#000000" font-size="5px" font-weight="bold" font-family="'Helvetica Neue', Helvetica, Arial-Unicode, Arial, Sans-serif">from the Noun Project</text></svg>